{"title":"In.The.Blood.2014.DVDRip.XviD.MP3-Insane098","uid":10039619,"size":763404165,"categoryP":"video","categoryS":"movies","magnet":"?xt=urn:btih:78d12c5802d647d038c543fcbb69b9f43f058cdc&amp;dn=In.The.Blood.2014.DVDRip.XviD.MP3-Insane098&amp;tr=udp%3A%2F%2Ftracker.openbittorrent.com%3A80&amp;tr=udp%3A%2F%2Fopen.demonii.com%3A1337&amp;tr=udp%3A%2F%2Ftracker.coppersurfer.tk%3A6969&amp;tr=udp%3A%2F%2Fexodus.desync.com%3A6969","seeders":1,"leechers":0,"uploader":"098765432","files":-1,"time":1398449162,"description":"Plot:\nWhen her husband goes missing during their Caribbean vacation, a woman sets off on her own to take down the men she thinks are responsible.\n\nFormat                                   : AVI\nFormat/Info                              : Audio Video Interleave\nFile size                                : 728 MiB\nDuration                                 : 1h 47mn\nOverall bit rate                         : 949 Kbps\nWriting application                      : MEncoder SVN-r31918\nWriting library                          : MPlayer\n\nVideo\nID                                       : 0\nFormat                                   : MPEG-4 Visual\nFormat profile                           : Advanced Simple@L5\nFormat settings, BVOP                    : 2\nFormat settings, QPel                    : No\nFormat settings, GMC                     : No warppoints\nFormat settings, Matrix                  : Default (H.263)\nMuxing mode                              : Packed bitstream\nCodec ID                                 : XVID\nCodec ID/Hint                            : XviD\nDuration                                 : 1h 47mn\nBit rate                                 : 745 Kbps\nWidth                                    : 720 pixels\nHeight                                   : 400 pixels\nDisplay aspect ratio                     : 16:9\nFrame rate                               : 24.000 fps\nColor space                              : YUV\nChroma subsampling                       : 4:2:0\nBit depth                                : 8 bits\nScan type                                : Progressive\nCompression mode                         : Lossy\nBits/(Pixel*Frame)                       : 0.108\nStream size                              : 571 MiB (78%)\nWriting library                          : XviD 1.2.1 (UTC 2008-12-04)\n\nAudio\nID                                       : 1\nFormat                                   : MPEG Audio\nFormat version                           : Version 1\nFormat profile                           : Layer 3\nMode                                     : Joint stereo\nMode extension                           : MS Stereo\nCodec ID                                 : 55\nCodec ID/Hint                            : MP3\nDuration                                 : 1h 47mn\nBit rate mode                            : Constant\nBit rate                                 : 192 Kbps\nChannel count                            : 2 channels\nSampling rate                            : 48.0 KHz\nCompression mode                         : Lossy\nStream size                              : 147 MiB (20%)\nAlignment                                : Aligned on interleaves\nInterleave, duration                     : 24 ms (0.58 video frame)\nInterleave, preload duration             : 504 ms\n\nScreenshots: &lt;a href=&quot;\nhttp://i1186.photobucket.com/albums/z372/Insane098/Screenshots/InTheBlood2014Screenshot1.jpg&quot; rel=&quot;nofollow&quot; target=&quot;_NEW&quot;&gt;\nhttp://i1186.photobucket.com/albums/z372/Insane098/Screenshots/InTheBlood2014Screenshot1.jpg&lt;/a&gt; &lt;a href=&quot;\nhttp://i1186.photobucket.com/albums/z372/Insane098/Screenshots/InTheBlood2014Screenshot3.jpg&quot; rel=&quot;nofollow&quot; target=&quot;_NEW&quot;&gt;\nhttp://i1186.photobucket.com/albums/z372/Insane098/Screenshots/InTheBlood2014Screenshot3.jpg&lt;/a&gt; &lt;a href=&quot;\nhttp://i1186.photobucket.com/albums/z372/Insane098/Screenshots/InTheBlood2014Screenshot3.jpg&quot; rel=&quot;nofollow&quot; target=&quot;_NEW&quot;&gt;\nhttp://i1186.photobucket.com/albums/z372/Insane098/Screenshots/InTheBlood2014Screenshot3.jpg&lt;/a&gt;","torrent":{"xt":"urn:btih:78d12c5802d647d038c543fcbb69b9f43f058cdc","amp;dn":"In.The.Blood.2014.DVDRip.XviD.MP3-Insane098","amp;tr":["udp%3A%2F%2Ftracker.openbittorrent.com%3A80","udp%3A%2F%2Fopen.demonii.com%3A1337","udp%3A%2F%2Ftracker.coppersurfer.tk%3A6969","udp%3A%2F%2Fexodus.desync.com%3A6969"],"infoHash":"78d12c5802d647d038c543fcbb69b9f43f058cdc","infoHashBuffer":{"type":"Buffer","data":[120,209,44,88,2,214,71,208,56,197,67,252,187,105,185,244,63,5,140,220]},"announce":[],"urlList":[]}}